<svg id="Layer_1" data-name="Layer 1" xmlns="http://www.w3.org/2000/svg" viewBox="0 0 577.63 625.14">
  <path d="M477.55,151.15c-8.08-11.42-11.51-23.37-10.38-36.68.15-1.73-2-4.72-3.78-5.39-31.63-12-63.36-23.72-95.08-35.47-3.36-1.24-5.77-1.26-8.42,2.55-19.11,27.41-56.24,28.59-77.16,2.26-4.15-5.22-7.33-5.56-12.91-3.36Q227,91.95,183.89,108.19c-5.36,2-7.38,4.34-7.06,10.54,1.54,30.21-22.79,53.09-52.91,50.8-2.19-.17-5.86,2-6.71,4-13.43,31.33-26.46,62.83-39.71,94.24-1.64,3.88-1.19,6.38,2,9.51,22.79,22.49,22.51,50.22-.65,72.56-2.85,2.75-3.6,4.82-2,8.61q20.16,47,39.89,94.15c1.47,3.5,2.93,5.29,7.35,4.91,30-2.53,53.43,19.2,52.63,49.2-.17,6.49,1.84,9,7.58,11.13,30.93,11.56,61.71,23.54,93,35.56,8-13.17,18.64-22.66,34.05-25.33,19.88-3.43,36.14,2.92,47.61,19.5,3.61,5.22,6.35,5.57,11.91,3.52,30.52-11.24,61.21-22,91.84-32.92,3.33-1.19,7.09-1.61,6.32-7-3.8-26.75,16.09-48.36,41.35-52.64,1.24-.21,2.45-.6,5.15-1.28,0-11-.07-22.19,0-33.33.14-16.93.25-33.86.67-50.78.12-4.54-1.2-6.82-5.65-8.6-14.1-5.66-23.63-15.87-27.64-30.73-1-3.8-2.71-5.52-6.95-5.46-25.26.31-50.52.4-75.79.44-4.43,0-6.69,1.14-8.15,6-6.81,22.62-26.58,35.8-49.9,34a47.49,47.49,0,0,1-43.37-39.53c-3.79-22.81,7.58-45,27.48-53.56,21.42-9.24,45.78-3.13,59,16.19,4.72,6.9,9.61,8.48,17.23,8.36,25.26-.42,50.52-.25,75.79-.07,4.34,0,6.91-1.2,9.36-5.06,12.07-19.07,31.85-27.45,52.88-22.95,19.2,4.1,34,20.6,36.68,41,2.85,21.37-7.16,40.24-27.42,50.62-4.15,2.13-5.56,4.56-5.61,9-.33,28.91-1,57.81-1.16,86.72a13.53,13.53,0,0,0,4,9.19c20,17.61,23.81,45.74,8.6,66.75-14.93,20.61-43.16,25.88-65.43,11.32-6.48-4.24-11.5-4.43-18.47-1.84-32.18,12-64.54,23.5-96.93,34.92-4.62,1.63-7,3.77-8.31,8.76-5.8,22.47-24.21,36.61-46.63,36.53-22.22-.09-40.73-14.63-46.27-37-1.28-5.17-3.67-7.57-8.58-9.38q-47.6-17.55-94.92-35.85c-4.66-1.81-7.7-1.48-11.85,1.58C138.4,559,112.23,557,95.29,540.21s-19.25-42.53-5-62.81c2.73-3.89,3.14-6.87,1.26-11.24C77.19,432.68,63.19,399,48.72,365.62c-1-2.26-4.73-4.25-7.45-4.68-22.22-3.47-38.4-19.55-40.9-41.17-1.69-14.68,2.48-28.28,11.07-38.35,2.77-3.24,9.38-10.81,20-13.8,6-1.7,10-1,14.84-4.36,5.72-4.05,7.57-10.44,8.46-13.32C62,226.5,89.88,164.49,91.58,160.43s1.5-6.78-1.21-10.41a48.2,48.2,0,0,1,4.3-63.48c17.18-17.4,43.41-19.75,63.39-5.09,4.43,3.25,7.81,3.54,12.69,1.64q47.66-18.53,95.53-36.5c4.45-1.67,6.38-4.14,7.35-8.76A47,47,0,0,1,319.15,0c22.89-.34,42.08,14.06,47.49,36.4,1.22,5,3.41,7.28,8,9,33.68,12.47,67.32,25,100.8,38,5.25,2,8.09-.08,11.86-2.55,17.24-11.32,35.39-12.43,53.07-1.92,17.15,10.18,25.14,26.26,23.31,46.16-1.91,20.81-13,35.65-33,42.23-7.13,2.35-15.38,2.48-23,1.81-5.54-.49-9.44,0-13,4.33a58.62,58.62,0,0,1-7.36,7c-7.38,6.27-12.32,12.45-12.19,23.88.21,17.35-15.31,30.25-32.44,30.64s-29.86-10.45-33.46-27.86a11.29,11.29,0,0,0-5.6-7.07c-18.88-8.11-37.93-15.84-57.05-23.38a8.87,8.87,0,0,0-6.88.91c-13,8.17-25.78,8.36-39.07.68-2.21-1.27-6-1.31-8.49-.36-17.49,6.7-34.92,13.6-52.13,21a13.18,13.18,0,0,0-6.65,8c-3.4,15-12.16,24.21-27,28.29-2.73.75-6,3.25-7.06,5.77-5.78,13.93-11.19,28-16.12,42.29-.94,2.71-.15,7.07,1.54,9.47,9.75,13.85,9.87,29.1-1,42.52-2.93,3.62-3.25,6.33-1.6,10.42,5.76,14.23,11,28.68,16.89,42.84a11.56,11.56,0,0,0,6.83,5.83c14.91,4,24.89,12.32,27.91,28.11a9.44,9.44,0,0,0,4.77,6q25.95,10.78,52.24,20.7c2.35.88,6.15,0,8.42-1.38,13.4-8.33,26.38-7.74,39.73.22a13.33,13.33,0,0,0,9.87,1.13Q372.21,441.24,395,432a12.32,12.32,0,0,0,6.32-7.43c4.95-20.12,23-31.21,42-25.37A33.86,33.86,0,0,1,464.67,445a32.52,32.52,0,0,1-46.3,16c-6.78-3.8-11.84-3.5-18.53-.72-13.45,5.58-27.25,10.32-41,15.14-4.13,1.44-6.17,3.51-7,8.06-2.83,16-16,26.66-32.57,27.1-15.47.42-29.7-10.37-32.67-26-1.07-5.58-3.65-7.82-8.4-9.62-16.32-6.14-32.43-12.83-48.82-18.75a14,14,0,0,0-10.47.89c-14.54,8.48-31.24,7.35-42.59-3.57a34.32,34.32,0,0,1-5.33-43c2.88-4.68,2.86-8.28,1-13-6-15.25-11.53-30.69-17.69-45.88a12.89,12.89,0,0,0-6.63-6.31c-13.92-5.47-22.51-17.1-22.59-31.57s8.33-25.81,22.48-31.54a15.37,15.37,0,0,0,7.59-7.49c5.69-13.41,10.41-27.23,16.08-40.64,2.45-5.79,2.25-10.34-.69-16-11.26-21.82-.29-45.81,23.45-49.8,7.3-1.22,15.75,1.62,23.06,4.26,4.52,1.63,7.9,2.34,12.37.48q24.84-10.4,50-20.1c4.81-1.86,7.37-4.28,8.31-9.75a32.52,32.52,0,0,1,33-27.49c16.8.32,29.7,11.93,32.83,28.92a10,10,0,0,0,5.23,6.26q27.74,11.57,55.82,22.28a12.29,12.29,0,0,0,9.08-.86c8.91-4.81,17.88-6.71,27.81-3.8,2.15.63,5.47.51,7.06-.76C465.06,162.62,471.08,156.9,477.55,151.15ZM129.16,100c-11.64.06-21.24,9.46-21.12,20.66a21.55,21.55,0,0,0,21.78,21A21.05,21.05,0,0,0,150,120.11C149.77,109.17,140.2,100,129.16,100Zm400.1,240.55c11.3.13,20.74-9.21,21-20.78.26-11.21-9.46-21-20.79-20.9-11.61.09-21.14,9.43-21.13,20.71A21.24,21.24,0,0,0,529.26,340.57Zm7.29-219.94a21,21,0,0,0-21.14-20.5c-11.29-.07-20.25,9.29-20.28,21.19,0,11.47,9.22,20.51,21,20.49C527.34,141.78,536.67,132.12,536.55,120.63ZM346.18,340.94a20.73,20.73,0,0,0,20.67-20.05,21,21,0,1,0-42-.3C324.87,331.56,334.64,340.89,346.18,340.94ZM47.82,333.46c11.65-.07,21.1-9.54,20.81-20.88-.28-11-9.92-20.48-20.67-20.36-11.32.13-21.08,9.95-20.93,21.07C27.18,324.19,36.79,333.52,47.82,333.46ZM341,576.72a20.35,20.35,0,0,0-20.29-21,20,20,0,0,0-20.77,19.63A20.58,20.58,0,0,0,319.68,597C330.84,597.41,340.64,588.1,341,576.72Zm.1-527.83c.17-11.15-9.47-20.89-20.79-21S300.15,36.72,300,48.18a21,21,0,0,0,20.56,21.06C331.39,69.31,340.9,59.87,341.07,48.89ZM128.86,485.66a20,20,0,0,0-20.18,20.27,20.48,20.48,0,0,0,20.2,20.43c11.47,0,21.51-10.11,21.2-21.39C149.79,494.06,140.44,485.56,128.86,485.66Zm387.11.22a20.21,20.21,0,0,0-20.1,20.46c0,11.12,9.85,20.51,21.33,20.33,11.08-.17,20.39-9.64,20.2-20.53C537.2,494.85,527.63,485.81,516,485.88Zm-184.66-9.19c.09-6.1-5.77-12.15-11.85-12.24a12.22,12.22,0,0,0-12.24,11.66,11.86,11.86,0,0,0,11.72,12C325.55,488.24,331.21,483,331.31,476.69ZM200.41,212.77a11.54,11.54,0,0,0,11.48-12.12,12.24,12.24,0,0,0-12.59-11.31c-5.91.29-11.22,6-11.17,11.94C188.19,207.56,193.92,212.93,200.41,212.77Zm241.25-.08a12,12,0,0,0,12.27-11.4,11.52,11.52,0,0,0-11.53-12c-6.29-.1-12.28,5.38-12.48,11.4C429.72,207,435.16,212.51,441.66,212.69ZM211.49,428a11.51,11.51,0,0,0-11.87-10.87,12,12,0,0,0-11.77,12c.05,6.3,6,11.79,12.31,11.43S211.69,434.27,211.49,428Zm234.18,3.14c.07-6.32-5.56-11.88-12-11.86-6.15,0-11.79,5.9-11.72,12.2s5.05,11.06,11.57,11.14C440.33,442.64,445.6,437.67,445.67,431.09ZM331.9,149.18a12.11,12.11,0,0,0-11.44-11.54c-6.15-.1-12.1,5.66-12.21,11.82-.11,5.9,5.38,11.3,11.55,11.36A11.8,11.8,0,0,0,331.9,149.18ZM158.56,324.92c6,.08,11.56-5.41,11.44-11.34-.1-5.6-5.29-10.82-11-11.08a11.54,11.54,0,0,0-11.8,10.93C147.07,319.32,152.53,324.85,158.56,324.92Z"/>
</svg>
